<svg id="SvgjsSvg1050" width="288" height="288" xmlns="http://www.w3.org/2000/svg" version="1.1" xmlns:xlink="http://www.w3.org/1999/xlink" xmlns:svgjs="http://svgjs.com/svgjs"><defs id="SvgjsDefs1051"></defs><g id="SvgjsG1052"><svg xmlns="http://www.w3.org/2000/svg" viewBox="0 0 48 48" width="288" height="288"><path d="M43,6H5A3,3,0,0,0,2,9V39a3,3,0,0,0,3,3H43a3,3,0,0,0,3-3V9A3,3,0,0,0,43,6ZM30.38,24.83,38,17.4l6,5.86V38.14ZM5,8H43a1,1,0,0,1,1,1V20.46l-5.3-5.18a1,1,0,0,0-1.4,0l-8.36,8.15L24.7,19.28a1,1,0,0,0-1.4,0L4,38.1V9A1,1,0,0,1,5,8ZM5,40H4.93L24,21.4,43,40H5Zm6-20a5,5,0,1,0-5-5A5,5,0,0,0,11,20Zm0-8a3,3,0,1,1-3,3A3,3,0,0,1,11,12Z" data-name="08 Image, Fill, Photo Crop" fill="#c0c3ca" class="color000 svgShape"></path></svg></g></svg>